<svg width="96" height="96" viewBox="0 0 96 96" fill="none" xmlns="http://www.w3.org/2000/svg">
<rect width="50.1139" height="50.1139" rx="5" transform="matrix(0.866025 0.5 -0.866025 0.5 48 16.5781)" fill="#3D7FE7"/>
<rect width="50.1139" height="50.1139" rx="5" transform="matrix(0.866025 0.5 -0.866025 0.5 48 4.30859)" fill="#F69540"/>
<path fill-rule="evenodd" clip-rule="evenodd" d="M80.7752 35.4994L52.33 51.9222C49.9386 53.3029 46.0612 53.3029 43.6698 51.9222L15.2246 35.4994L43.6698 19.0766C46.0612 17.6958 49.9386 17.6958 52.33 19.0765L80.7752 35.4994Z" fill="#253066"/>
<path fill-rule="evenodd" clip-rule="evenodd" d="M9.0806 47.3282C7.91151 48.2434 7.16016 49.6678 7.16016 51.2676V86.6913C7.16016 89.4528 9.39873 91.6913 12.1602 91.6913H83.8391C86.6005 91.6913 88.8391 89.4528 88.8391 86.6914V51.2676C88.8391 48.5062 86.6005 46.2676 83.8391 46.2676H83.8391C85.0006 46.2676 86.0696 46.6637 86.9185 47.3281L52.3296 67.298C49.9381 68.6787 46.0608 68.6787 43.6693 67.298L9.0806 47.3282ZM12.1602 46.2676C10.9985 46.2676 9.92946 46.6637 9.0806 47.3282L9.08057 47.3282C9.92942 46.6637 10.9985 46.2676 12.1601 46.2676H12.1602Z" fill="url(#paint0_linear_38_1105)"/>
<defs>
<linearGradient id="paint0_linear_38_1105" x1="47.9996" y1="46.2676" x2="47.9996" y2="91.6913" gradientUnits="userSpaceOnUse">
<stop stop-color="#AFCDFF"/>
<stop offset="1" stop-color="#D9D9D9" stop-opacity="0"/>
</linearGradient>
</defs>
</svg>
