<svg width="25" height="25" viewBox="0 0 25 25" fill="none" xmlns="http://www.w3.org/2000/svg">
<path d="M11.2324 9.1748H13.2324V7.1748H11.2324M12.2324 20.1748C7.82242 20.1748 4.23242 16.5848 4.23242 12.1748C4.23242 7.7648 7.82242 4.1748 12.2324 4.1748C16.6424 4.1748 20.2324 7.7648 20.2324 12.1748C20.2324 16.5848 16.6424 20.1748 12.2324 20.1748ZM12.2324 2.1748C10.9192 2.1748 9.61884 2.43346 8.40559 2.93601C7.19233 3.43856 6.08994 4.17515 5.16135 5.10374C3.28599 6.9791 2.23242 9.52264 2.23242 12.1748C2.23242 14.827 3.28599 17.3705 5.16135 19.2459C6.08994 20.1745 7.19233 20.9111 8.40559 21.4136C9.61884 21.9161 10.9192 22.1748 12.2324 22.1748C14.8846 22.1748 17.4281 21.1212 19.3035 19.2459C21.1789 17.3705 22.2324 14.827 22.2324 12.1748C22.2324 10.8616 21.9738 9.56123 21.4712 8.34797C20.9687 7.13471 20.2321 6.03232 19.3035 5.10374C18.3749 4.17515 17.2725 3.43856 16.0593 2.93601C14.846 2.43346 13.5456 2.1748 12.2324 2.1748ZM11.2324 17.1748H13.2324V11.1748H11.2324V17.1748Z" fill="black"/>
</svg>
