<svg width="476" height="96" viewBox="0 0 476 96" fill="none" xmlns="http://www.w3.org/2000/svg">
<rect width="50.1139" height="50.1139" rx="5" transform="matrix(0.866025 0.5 -0.866025 0.5 48 16.5781)" fill="#3D7FE7"/>
<rect width="50.1139" height="50.1139" rx="5" transform="matrix(0.866025 0.5 -0.866025 0.5 48 4.30859)" fill="#F69540"/>
<path fill-rule="evenodd" clip-rule="evenodd" d="M80.7752 35.4994L52.33 51.9222C49.9386 53.3029 46.0612 53.3029 43.6698 51.9222L15.2246 35.4994L43.6698 19.0766C46.0612 17.6958 49.9386 17.6958 52.33 19.0765L80.7752 35.4994Z" fill="#253066"/>
<path fill-rule="evenodd" clip-rule="evenodd" d="M9.0806 47.3282C7.91151 48.2434 7.16016 49.6678 7.16016 51.2676V86.6913C7.16016 89.4528 9.39873 91.6913 12.1602 91.6913H83.8391C86.6005 91.6913 88.8391 89.4528 88.8391 86.6914V51.2676C88.8391 48.5062 86.6005 46.2676 83.8391 46.2676H83.8391C85.0006 46.2676 86.0696 46.6637 86.9185 47.3281L52.3296 67.298C49.9381 68.6787 46.0608 68.6787 43.6693 67.298L9.0806 47.3282ZM12.1602 46.2676C10.9985 46.2676 9.92946 46.6637 9.0806 47.3282L9.08057 47.3282C9.92942 46.6637 10.9985 46.2676 12.1601 46.2676H12.1602Z" fill="url(#paint0_linear_38_1106)"/>
<path d="M107.75 92.0146V39.8646H115.45L135.05 67.0246H131.2L150.45 39.8646H158.15V92.0146H149.96V49.5946L153.04 50.4346L133.37 77.3146H132.53L113.28 50.4346L116.01 49.5946V92.0146H107.75ZM181.602 92.8546C179.035 92.8546 176.772 92.4113 174.812 91.5246C172.899 90.5913 171.405 89.3313 170.332 87.7446C169.259 86.1113 168.722 84.198 168.722 82.0046C168.722 79.9513 169.165 78.108 170.052 76.4746C170.985 74.8413 172.409 73.4646 174.322 72.3446C176.235 71.2246 178.639 70.4313 181.532 69.9646L194.692 67.7946V74.0246L183.072 76.0546C180.972 76.428 179.432 77.1046 178.452 78.0846C177.472 79.018 176.982 80.2313 176.982 81.7246C176.982 83.1713 177.519 84.3613 178.592 85.2946C179.712 86.1813 181.135 86.6246 182.862 86.6246C185.009 86.6246 186.875 86.158 188.462 85.2246C190.095 84.2913 191.355 83.0546 192.242 81.5146C193.129 79.928 193.572 78.178 193.572 76.2646V66.5346C193.572 64.668 192.872 63.1513 191.472 61.9846C190.119 60.7713 188.299 60.1646 186.012 60.1646C183.912 60.1646 182.069 60.7246 180.482 61.8446C178.942 62.918 177.799 64.318 177.052 66.0446L170.472 62.7546C171.172 60.888 172.315 59.2546 173.902 57.8546C175.489 56.408 177.332 55.288 179.432 54.4946C181.579 53.7013 183.842 53.3046 186.222 53.3046C189.209 53.3046 191.845 53.8646 194.132 54.9846C196.465 56.1046 198.262 57.668 199.522 59.6746C200.829 61.6346 201.482 63.9213 201.482 66.5346V92.0146H193.922V85.1546L195.532 85.3646C194.645 86.9046 193.502 88.2346 192.102 89.3546C190.749 90.4746 189.185 91.338 187.412 91.9446C185.685 92.5513 183.749 92.8546 181.602 92.8546ZM212.831 92.0146V54.1446H220.741V92.0146H212.831ZM212.831 48.9646V39.8646H220.741V48.9646H212.831ZM232.089 92.0146V39.0246H239.999V92.0146H232.089ZM252.117 92.0146V39.8646H286.067V47.2146H260.377V62.8946H283.267V70.2446H260.377V92.0146H252.117ZM294.326 92.0146V39.0246H302.236V92.0146H294.326ZM324.924 92.8546C322.358 92.8546 320.094 92.4113 318.134 91.5246C316.221 90.5913 314.728 89.3313 313.654 87.7446C312.581 86.1113 312.044 84.198 312.044 82.0046C312.044 79.9513 312.488 78.108 313.374 76.4746C314.308 74.8413 315.731 73.4646 317.644 72.3446C319.558 71.2246 321.961 70.4313 324.854 69.9646L338.014 67.7946V74.0246L326.394 76.0546C324.294 76.428 322.754 77.1046 321.774 78.0846C320.794 79.018 320.304 80.2313 320.304 81.7246C320.304 83.1713 320.841 84.3613 321.914 85.2946C323.034 86.1813 324.458 86.6246 326.184 86.6246C328.331 86.6246 330.198 86.158 331.784 85.2246C333.418 84.2913 334.678 83.0546 335.564 81.5146C336.451 79.928 336.894 78.178 336.894 76.2646V66.5346C336.894 64.668 336.194 63.1513 334.794 61.9846C333.441 60.7713 331.621 60.1646 329.334 60.1646C327.234 60.1646 325.391 60.7246 323.804 61.8446C322.264 62.918 321.121 64.318 320.374 66.0446L313.794 62.7546C314.494 60.888 315.638 59.2546 317.224 57.8546C318.811 56.408 320.654 55.288 322.754 54.4946C324.901 53.7013 327.164 53.3046 329.544 53.3046C332.531 53.3046 335.168 53.8646 337.454 54.9846C339.788 56.1046 341.584 57.668 342.844 59.6746C344.151 61.6346 344.804 63.9213 344.804 66.5346V92.0146H337.244V85.1546L338.854 85.3646C337.968 86.9046 336.824 88.2346 335.424 89.3546C334.071 90.4746 332.508 91.338 330.734 91.9446C329.008 92.5513 327.071 92.8546 324.924 92.8546ZM356.153 92.0146V54.1446H363.713V62.3346L362.733 61.0746C363.526 58.508 364.973 56.5713 367.073 55.2646C369.173 53.958 371.576 53.3046 374.283 53.3046C377.316 53.3046 380 54.1213 382.333 55.7546C384.713 57.3413 386.3 59.4646 387.093 62.1246L384.853 62.3346C385.973 59.3013 387.676 57.038 389.963 55.5446C392.296 54.0513 394.956 53.3046 397.943 53.3046C400.556 53.3046 402.913 53.9113 405.013 55.1246C407.16 56.338 408.863 58.018 410.123 60.1646C411.383 62.3113 412.013 64.7613 412.013 67.5146V92.0146H404.103V69.6846C404.103 67.7713 403.753 66.1613 403.053 64.8546C402.4 63.5013 401.466 62.4746 400.253 61.7746C399.086 61.028 397.71 60.6546 396.123 60.6546C394.536 60.6546 393.136 61.028 391.923 61.7746C390.71 62.4746 389.753 63.5013 389.053 64.8546C388.353 66.208 388.003 67.818 388.003 69.6846V92.0146H380.163V69.6846C380.163 67.7713 379.813 66.1613 379.113 64.8546C378.46 63.5013 377.526 62.4746 376.313 61.7746C375.146 61.028 373.746 60.6546 372.113 60.6546C370.526 60.6546 369.126 61.028 367.913 61.7746C366.7 62.4746 365.743 63.5013 365.043 64.8546C364.39 66.208 364.063 67.818 364.063 69.6846V92.0146H356.153ZM440.359 92.8546C436.579 92.8546 433.219 91.9913 430.279 90.2646C427.386 88.4913 425.123 86.1113 423.489 83.1246C421.856 80.0913 421.039 76.708 421.039 72.9746C421.039 69.148 421.856 65.7646 423.489 62.8246C425.169 59.8846 427.409 57.5746 430.209 55.8946C433.009 54.168 436.183 53.3046 439.729 53.3046C442.576 53.3046 445.119 53.7946 447.359 54.7746C449.599 55.7546 451.489 57.108 453.029 58.8346C454.569 60.5146 455.736 62.4513 456.529 64.6446C457.369 66.838 457.789 69.1713 457.789 71.6446C457.789 72.2513 457.766 72.8813 457.719 73.5346C457.673 74.188 457.579 74.7946 457.439 75.3546H427.269V69.0546H452.959L449.179 71.9246C449.646 69.638 449.483 67.608 448.689 65.8346C447.943 64.0146 446.776 62.5913 445.189 61.5646C443.649 60.4913 441.829 59.9546 439.729 59.9546C437.629 59.9546 435.763 60.4913 434.129 61.5646C432.496 62.5913 431.236 64.0846 430.349 66.0446C429.463 67.958 429.113 70.2913 429.299 73.0446C429.066 75.6113 429.416 77.8513 430.349 79.7646C431.329 81.678 432.683 83.1713 434.409 84.2446C436.183 85.318 438.189 85.8546 440.429 85.8546C442.716 85.8546 444.653 85.3413 446.239 84.3146C447.873 83.288 449.156 81.958 450.089 80.3246L456.529 83.4746C455.783 85.248 454.616 86.858 453.029 88.3046C451.489 89.7046 449.623 90.8246 447.429 91.6646C445.283 92.458 442.926 92.8546 440.359 92.8546Z" fill="black"/>
<defs>
<linearGradient id="paint0_linear_38_1106" x1="47.9996" y1="46.2676" x2="47.9996" y2="91.6913" gradientUnits="userSpaceOnUse">
<stop stop-color="#AFCDFF"/>
<stop offset="1" stop-color="#D9D9D9" stop-opacity="0"/>
</linearGradient>
</defs>
</svg>
