<svg width="22" height="22" viewBox="0 0 22 22" fill="none" xmlns="http://www.w3.org/2000/svg">
<path d="M7.48492 4.1127L4.98492 5.5127L6.38492 3.0127L4.98492 0.512695L7.48492 1.9127L9.98492 0.512695L8.58492 3.0127L9.98492 5.5127L7.48492 4.1127ZM19.4849 13.9127L21.9849 12.5127L20.5849 15.0127L21.9849 17.5127L19.4849 16.1127L16.9849 17.5127L18.3849 15.0127L16.9849 12.5127L19.4849 13.9127ZM21.9849 0.512695L20.5849 3.0127L21.9849 5.5127L19.4849 4.1127L16.9849 5.5127L18.3849 3.0127L16.9849 0.512695L19.4849 1.9127L21.9849 0.512695ZM13.3249 11.2927L15.7649 8.8527L13.6449 6.7327L11.2049 9.1727L13.3249 11.2927ZM14.3549 5.8027L16.6949 8.1427C17.0849 8.5127 17.0849 9.16269 16.6949 9.5527L5.02492 21.2227C4.63492 21.6127 3.98492 21.6127 3.61492 21.2227L1.27492 18.8827C0.884922 18.5127 0.884922 17.8627 1.27492 17.4727L12.9449 5.8027C13.3349 5.4127 13.9849 5.4127 14.3549 5.8027Z" fill="black"/>
</svg>
